<svg width="64" height="64" viewBox="0 0 64 64" fill="none" xmlns="http://www.w3.org/2000/svg">
    <g clip-path="url(#clip0_1_12)">
        <path d="M52 0H12C5.37258 0 0 5.37258 0 12V52C0 58.6274 5.37258 64 12 64H52C58.6274 64 64 58.6274 64 52V12C64 5.37258 58.6274 0 52 0Z" fill="black"/>
        <path opacity="0.3" d="M19.6875 6L19.6875 58L45.3125 58L45.3125 6L19.6875 6Z" fill="#FF9933"/>
        <path d="M53 9.9L53 54.1C53 56.258 51.2831 58 49.1562 58L45.3125 58L45.3125 50.2C45.3125 48.77 44.1594 47.6 42.75 47.6L22.25 47.6C20.8406 47.6 19.6875 48.77 19.6875 50.2L19.6875 58L15.8437 58C13.7169 58 12 56.258 12 54.1L12 9.9C12 7.742 13.7169 6 15.8437 6L19.6875 6L19.6875 13.8C19.6875 15.23 20.8406 16.4 22.25 16.4L42.75 16.4C44.1594 16.4 45.3125 15.23 45.3125 13.8L45.3125 6L49.1562 6C51.2831 6 53 7.742 53 9.9ZM46.5937 13.02C46.5937 13.748 47.1575 14.32 47.875 14.32L50.4375 14.32C51.155 14.32 51.7187 13.748 51.7187 13.02L51.7187 11.98C51.7187 11.252 51.155 10.68 50.4375 10.68L47.875 10.68C47.1575 10.68 46.5937 11.252 46.5937 11.98L46.5937 13.02ZM46.5937 20.82C46.5937 21.548 47.1575 22.12 47.875 22.12L50.4375 22.12C51.155 22.12 51.7187 21.548 51.7187 20.82L51.7187 19.78C51.7187 19.052 51.155 18.48 50.4375 18.48L47.875 18.48C47.1575 18.48 46.5937 19.052 46.5937 19.78L46.5937 20.82ZM46.5937 28.62C46.5937 29.348 47.1575 29.92 47.875 29.92L50.4375 29.92C51.155 29.92 51.7187 29.348 51.7187 28.62L51.7187 27.58C51.7187 26.852 51.155 26.28 50.4375 26.28L47.875 26.28C47.1575 26.28 46.5937 26.852 46.5937 27.58L46.5937 28.62ZM46.5937 36.42C46.5937 37.148 47.1575 37.72 47.875 37.72L50.4375 37.72C51.155 37.72 51.7187 37.148 51.7187 36.42L51.7187 35.38C51.7187 34.652 51.155 34.08 50.4375 34.08L47.875 34.08C47.1575 34.08 46.5937 34.652 46.5937 35.38L46.5937 36.42ZM46.5937 44.22C46.5937 44.948 47.1575 45.52 47.875 45.52L50.4375 45.52C51.155 45.52 51.7187 44.948 51.7187 44.22L51.7187 43.18C51.7187 42.452 51.155 41.88 50.4375 41.88L47.875 41.88C47.1575 41.88 46.5937 42.452 46.5937 43.18L46.5937 44.22ZM46.5937 52.02C46.5937 52.748 47.1575 53.32 47.875 53.32L50.4375 53.32C51.155 53.32 51.7187 52.748 51.7187 52.02L51.7187 50.98C51.7187 50.252 51.155 49.68 50.4375 49.68L47.875 49.68C47.1575 49.68 46.5937 50.252 46.5937 50.98L46.5937 52.02ZM19.6875 39.8C19.6875 41.23 20.8406 42.4 22.25 42.4L42.75 42.4C44.1594 42.4 45.3125 41.23 45.3125 39.8L45.3125 24.2C45.3125 22.77 44.1594 21.6 42.75 21.6L22.25 21.6C20.8406 21.6 19.6875 22.77 19.6875 24.2L19.6875 39.8ZM13.2812 13.02C13.2812 13.748 13.845 14.32 14.5625 14.32L17.125 14.32C17.8425 14.32 18.4062 13.748 18.4062 13.02L18.4062 11.98C18.4062 11.252 17.8425 10.68 17.125 10.68L14.5625 10.68C13.845 10.68 13.2812 11.252 13.2812 11.98L13.2812 13.02ZM13.2812 20.82C13.2812 21.548 13.845 22.12 14.5625 22.12L17.125 22.12C17.8425 22.12 18.4062 21.548 18.4062 20.82L18.4062 19.78C18.4062 19.052 17.8425 18.48 17.125 18.48L14.5625 18.48C13.845 18.48 13.2812 19.052 13.2812 19.78L13.2812 20.82ZM13.2812 28.62C13.2812 29.348 13.845 29.92 14.5625 29.92L17.125 29.92C17.8425 29.92 18.4062 29.348 18.4062 28.62L18.4062 27.58C18.4062 26.852 17.8425 26.28 17.125 26.28L14.5625 26.28C13.845 26.28 13.2812 26.852 13.2812 27.58L13.2812 28.62ZM13.2812 36.42C13.2812 37.148 13.845 37.72 14.5625 37.72L17.125 37.72C17.8425 37.72 18.4062 37.148 18.4062 36.42L18.4062 35.38C18.4062 34.652 17.8425 34.08 17.125 34.08L14.5625 34.08C13.845 34.08 13.2812 34.652 13.2812 35.38L13.2812 36.42ZM13.2812 44.22C13.2812 44.948 13.845 45.52 14.5625 45.52L17.125 45.52C17.8425 45.52 18.4062 44.948 18.4062 44.22L18.4062 43.18C18.4062 42.452 17.8425 41.88 17.125 41.88L14.5625 41.88C13.845 41.88 13.2812 42.452 13.2812 43.18L13.2812 44.22ZM13.2812 52.02C13.2812 52.748 13.845 53.32 14.5625 53.32L17.125 53.32C17.8425 53.32 18.4062 52.748 18.4062 52.02L18.4062 50.98C18.4062 50.252 17.8425 49.68 17.125 49.68L14.5625 49.68C13.845 49.68 13.2812 50.252 13.2812 50.98L13.2812 52.02Z" fill="#FF9933"/>
    </g>
    <defs>
        <clipPath id="clip0_1_12">
            <rect width="64" height="64" fill="white"/>
        </clipPath>
    </defs>
</svg>
